<?xml version="1.0" encoding="UTF-8"?>
<svg version="1.1" xmlns="http://www.w3.org/2000/svg" width="475" height="326">
<path d="M0 0 C156.75 0 313.5 0 475 0 C475 107.58 475 215.16 475 326 C318.25 326 161.5 326 0 326 C0 218.42 0 110.84 0 0 Z " fill="#F4F1EE" transform="translate(0,0)"/>
<path d="M0 0 C2.35500948 0.11517421 4.70849073 0.24187978 7.0625 0.375 C8.37347656 0.44460937 9.68445313 0.51421875 11.03515625 0.5859375 C14.9148459 0.99110706 18.29153545 1.81768907 22 3 C23.09699219 3.33257812 24.19398438 3.66515625 25.32421875 4.0078125 C33.82606479 6.83188679 40.9582138 10.44441994 48 16 C49.21612473 16.78469917 49.21612473 16.78469917 50.45681763 17.58525085 C54.90408463 20.84267376 57.60418993 23.30136761 58.88171387 28.78390503 C59.28499383 33.43162308 59.1262869 38.06614263 58.9765625 42.72265625 C58.9578837 44.43610994 58.94366209 46.14961747 58.9336853 47.86314392 C58.89571555 52.34771251 58.79768699 56.82898095 58.68664551 61.31225586 C58.58387669 65.89716959 58.53857714 70.48262298 58.48828125 75.06835938 C58.38141173 84.0470137 58.21101318 93.02323122 58 102 C55.57601528 101.0451045 53.20245059 100.10290306 50.87890625 98.921875 C32.37431302 89.56036072 11.26543426 86.64270766 -9.20922852 86.98486328 C-10.07604248 86.99888184 -10.94285645 87.01290039 -11.8359375 87.02734375 C-12.61501465 87.04531006 -13.3940918 87.06327637 -14.19677734 87.08178711 C-16 87 -16 87 -17 86 C-17.09436529 83.76070114 -17.11742327 81.5183825 -17.11352539 79.27709961 C-17.11367142 78.5746965 -17.11381744 77.8722934 -17.1139679 77.14860535 C-17.11326872 74.81648722 -17.10547617 72.484448 -17.09765625 70.15234375 C-17.09579208 68.53951562 -17.09436818 66.92668693 -17.09336853 65.31385803 C-17.08954323 61.06084643 -17.07971285 56.80786876 -17.06866455 52.55487061 C-17.05845069 48.2182257 -17.05387096 43.88157533 -17.04882812 39.54492188 C-17.03809059 31.02993231 -17.02101403 22.51497037 -17 14 C-13.04 14 -9.08 14 -5 14 C-4.97494385 15.81234131 -4.9498877 17.62468262 -4.92407227 19.49194336 C-4.840316 25.46711805 -4.7520445 31.44221159 -4.66066074 37.41727352 C-4.60539903 41.0414158 -4.551974 44.6655661 -4.50268555 48.28979492 C-4.45508968 51.78467099 -4.4027489 55.2794462 -4.34705925 58.77420235 C-4.31663587 60.76233823 -4.29118018 62.75054809 -4.26576233 64.73875427 C-4.24581711 65.93992386 -4.22587189 67.14109344 -4.20532227 68.37866211 C-4.18977798 69.44233505 -4.1742337 70.506008 -4.15821838 71.60191345 C-4.26771448 73.95195928 -4.26771448 73.95195928 -3 75 C-1.08191053 75.32081721 0.84471601 75.59079691 2.7734375 75.83984375 C17.71893268 77.95386109 30.32001457 80.67895595 43.26196289 88.93432617 C45.12474784 90.07648888 47.03435373 91.04778475 49 92 C48.505 91.54625 48.01 91.0925 47.5 90.625 C46 89 46 89 46 87 C45.40791748 86.88333984 44.81583496 86.76667969 44.20581055 86.64648438 C41.88678895 85.96681983 40.59569697 85.13569065 38.70703125 83.65625 C35.20838698 81.06782968 31.67767047 79.21376934 27.6875 77.5 C27.01323975 77.20593262 26.33897949 76.91186523 25.64428711 76.60888672 C18.77065507 73.71993476 11.68362934 71.79219073 4.47265625 69.9453125 C1 69 1 69 0 68 C-0.0942174 65.88318683 -0.11742761 63.76319242 -0.11352539 61.64428711 C-0.11367142 60.98089828 -0.11381744 60.31750946 -0.1139679 59.63401794 C-0.11326881 57.43176044 -0.10547665 55.22958655 -0.09765625 53.02734375 C-0.09579206 51.50419664 -0.09436816 49.98104893 -0.09336853 48.457901 C-0.08954346 44.44162349 -0.07971328 40.42538192 -0.06866455 36.40911865 C-0.05845019 32.31376634 -0.05387086 28.21840824 -0.04882812 24.12304688 C-0.038091 16.08201472 -0.02101472 8.04101183 0 0 Z " fill="#0D2A4C" transform="translate(158,60)"/>
<path d="M0 0 C6.73319871 3.94704752 12.00967789 8.92900542 14.8984375 16.2890625 C17.05371472 24.88481519 16.49948596 33.00621751 12.0625 40.6953125 C10.11944205 43.59977933 8.0579909 46.38676367 5.91796875 49.1484375 C1.62935433 54.80891417 0.95761842 60.04336489 0.5625 66.9375 C-2.0775 66.9375 -4.7175 66.9375 -7.4375 66.9375 C-7.37691406 66.17308594 -7.31632812 65.40867187 -7.25390625 64.62109375 C-7.17011719 63.54988281 -7.08632813 62.47867188 -7 61.375 C-6.90332031 60.19679687 -6.80664062 59.01859375 -6.70703125 57.8046875 C-6.52466564 55.18813748 -6.39861545 52.56715466 -6.32421875 49.9453125 C-5.91491666 38.13402349 -5.91491666 38.13402349 -0.4375 32.9375 C-0.4375 31.6175 -0.4375 30.2975 -0.4375 28.9375 C-2.4175 28.6075 -4.3975 28.2775 -6.4375 27.9375 C-7.51275194 30.58978812 -8.53206151 33.22118454 -9.4375 35.9375 C-11.0875 35.9375 -12.7375 35.9375 -14.4375 35.9375 C-15.7575 33.6275 -17.0775 31.3175 -18.4375 28.9375 C-20.0875 28.9375 -21.7375 28.9375 -23.4375 28.9375 C-23.17356499 32.36980448 -23.17356499 32.36980448 -22.4375 35.9375 C-21.4475 36.5975 -20.4575 37.2575 -19.4375 37.9375 C-18.87907556 40.80129162 -18.50414854 43.48238063 -18.25 46.375 C-18.12939209 47.58712158 -18.12939209 47.58712158 -18.00634766 48.82373047 C-17.44046315 54.86747357 -17.19685294 60.86784634 -17.4375 66.9375 C-19.7475 66.9375 -22.0575 66.9375 -24.4375 66.9375 C-24.52386719 66.1640625 -24.61023438 65.390625 -24.69921875 64.59375 C-25.65912115 57.47814321 -27.1782586 52.67064782 -31.4375 46.9375 C-37.84692866 37.89815835 -40.81914797 30.22095842 -39.4375 18.9375 C-36.7773449 10.57701253 -31.31877708 4.06488039 -23.875 -0.5 C-16.44887109 -3.81652359 -7.29933867 -3.36549661 0 0 Z " fill="#F0EDEB" transform="translate(282.4375,51.0625)"/>
<path d="M0 0 C0.33 20.13 0.66 40.26 1 61 C2.65 61.66 4.3 62.32 6 63 C5.67 63.99 5.34 64.98 5 66 C1.83984375 66.94921875 1.83984375 66.94921875 -2.0625 67.6875 C-3.35285156 67.93886719 -4.64320313 68.19023437 -5.97265625 68.44921875 C-6.97167969 68.63097656 -7.97070312 68.81273437 -9 69 C-9 66.69 -9 64.38 -9 62 C-9.66 62 -10.32 62 -11 62 C-11 62.66 -11 63.32 -11 64 C-17.43457711 67.88502769 -22.50635742 68.92087774 -30 68 C-35.51254394 66.23182553 -38.76028909 62.64828086 -42 58 C-44.82622938 52.47600621 -44.85394098 46.0538316 -44 40 C-41.24683286 32.77293625 -36.56176789 27.93174756 -30 24 C-29.37222656 23.62359375 -28.74445313 23.2471875 -28.09765625 22.859375 C-25.4778778 21.78609519 -23.38799616 21.73432457 -20.5625 21.75 C-19.63566406 21.74484375 -18.70882812 21.7396875 -17.75390625 21.734375 C-14.83945824 22.01548488 -12.65109503 22.78752097 -10 24 C-10.05985162 21.37251369 -10.14676224 18.75083005 -10.25 16.125 C-10.26417969 15.37863281 -10.27835938 14.63226563 -10.29296875 13.86328125 C-10.35986341 11.42861619 -10.35986341 11.42861619 -11 8 C-12.90628782 6.39662601 -12.90628782 6.39662601 -15 6 C-14.67 5.01 -14.34 4.02 -14 3 C-11.34765625 2.05078125 -11.34765625 2.05078125 -8.0625 1.3125 C-6.98097656 1.06113281 -5.89945313 0.80976563 -4.78515625 0.55078125 C-2 0 -2 0 0 0 Z " fill="#163150" transform="translate(246,165)"/>
<path d="M0 0 C8.29747992 5.46510708 14.62192404 12.81493065 17.34765625 22.5234375 C18.57385144 31.65734044 16.99203783 40.3147622 11.6640625 47.9296875 C10.46337084 49.43765294 9.25125594 50.93660054 8.02734375 52.42578125 C2.8312672 58.91483499 1.87060775 64.49327623 1.62109375 72.765625 C1.34765625 75.5234375 1.34765625 75.5234375 -0.65234375 77.5234375 C-3.69335937 77.78222656 -3.69335937 77.78222656 -7.55859375 77.7890625 C-8.57934998 77.79193268 -8.57934998 77.79193268 -9.62072754 77.79486084 C-11.05981821 77.79622213 -12.49892119 77.79252955 -13.93798828 77.78417969 C-16.14383462 77.77347878 -18.34886656 77.78407622 -20.5546875 77.796875 C-21.95182472 77.79555339 -23.34896143 77.79299098 -24.74609375 77.7890625 C-26.02162109 77.78680664 -27.29714844 77.78455078 -28.61132812 77.78222656 C-31.65234375 77.5234375 -31.65234375 77.5234375 -33.65234375 75.5234375 C-33.82876079 73.69564133 -33.91989651 71.85917756 -33.96484375 70.0234375 C-34.59286325 60.98212233 -38.29357978 54.69520411 -44.296875 48.10546875 C-49.50087882 42.03163144 -49.97791304 34.75896606 -49.86328125 27.1015625 C-49.07806411 17.50446406 -43.81496825 9.36512187 -37.08984375 2.7109375 C-26.40986007 -6.12058747 -11.8006061 -6.56940958 0 0 Z M-39.65234375 13.5234375 C-44.0062491 20.09098574 -44.61061548 26.80786823 -43.65234375 34.5234375 C-42.01272279 41.71254477 -38.92590271 46.8483042 -34.265625 52.4765625 C-29.94013627 57.96459178 -29.09562592 63.78249146 -28.65234375 70.5234375 C-26.34234375 70.5234375 -24.03234375 70.5234375 -21.65234375 70.5234375 C-21.3806866 63.67164045 -21.75476689 56.90405562 -22.40234375 50.0859375 C-22.46405762 49.30492676 -22.52577148 48.52391602 -22.58935547 47.71923828 C-23.08984324 42.91517996 -23.83161775 40.7510266 -27.65234375 37.5234375 C-27.90234375 34.7734375 -27.90234375 34.7734375 -27.65234375 32.5234375 C-26.00234375 32.5234375 -24.35234375 32.5234375 -22.65234375 32.5234375 C-21.33234375 34.8334375 -20.01234375 37.1434375 -18.65234375 39.5234375 C-17.00234375 39.5234375 -15.35234375 39.5234375 -13.65234375 39.5234375 C-11.45095715 35.71916258 -11.45095715 35.71916258 -10.65234375 31.5234375 C-8.67234375 31.8534375 -6.69234375 32.1834375 -4.65234375 32.5234375 C-4.90234375 35.2734375 -4.90234375 35.2734375 -5.65234375 38.5234375 C-6.30203125 39.02617188 -6.95171875 39.52890625 -7.62109375 40.046875 C-10.86882837 44.00661298 -10.59049103 48.41529093 -10.90234375 53.3984375 C-10.9796875 54.37941406 -11.05703125 55.36039063 -11.13671875 56.37109375 C-11.49375805 61.09548879 -11.74876365 65.7827922 -11.65234375 70.5234375 C-9.01234375 70.5234375 -6.37234375 70.5234375 -3.65234375 70.5234375 C-3.64976562 69.92917969 -3.6471875 69.33492188 -3.64453125 68.72265625 C-3.17394555 58.63643617 1.77712237 51.03156219 8.05078125 43.375 C12.4675801 37.06908839 12.12285645 29.92013943 11.34765625 22.5234375 C8.98645557 14.72304239 4.09953083 8.71980823 -2.609375 4.20703125 C-16.62055463 -3.253467 -30.36265877 1.99354088 -39.65234375 13.5234375 Z " fill="#193250" transform="translate(286.65234375,47.4765625)"/>
<path d="M0 0 C0.2475 1.27875 0.495 2.5575 0.75 3.875 C2.62637746 12.04426243 4.93497392 18.02266225 10.6875 24.25 C15.39519414 29.64119296 15.94767616 33.79771802 15.8046875 40.8359375 C16.02758133 44.4468176 17.13808237 45.96773415 19 49 C19.29296875 51.89453125 19.29296875 51.89453125 19.1875 54.8125 C19.16042969 55.78832031 19.13335937 56.76414063 19.10546875 57.76953125 C19.07066406 58.50558594 19.03585938 59.24164063 19 60 C17.88625 60.495 16.7725 60.99 15.625 61.5 C6.6433908 65.99875293 -1.81380797 73.37029348 -7.8125 81.4375 C-8.4003125 82.2109375 -8.4003125 82.2109375 -9 83 C-9.66 83 -10.32 83 -11 83 C-11.20885917 73.21214039 -11.36860791 63.42481368 -11.46630955 53.63517666 C-11.51321167 49.08890828 -11.57678278 44.54416808 -11.67895508 39.9987793 C-11.77700738 35.60902554 -11.83061012 31.22073778 -11.85389519 26.82997322 C-11.87047968 25.15808088 -11.9028692 23.4862657 -11.95157051 21.81500053 C-12.31743272 8.73533683 -12.31743272 8.73533683 -9.00680542 4.37454224 C-3.55802492 0 -3.55802492 0 0 0 Z " fill="#112E4F" transform="translate(231,79)"/>
<path d="M0 0 C1.84985352 0.20800781 1.84985352 0.20800781 4 1 C5.29272461 3.01855469 5.29272461 3.01855469 6.40234375 5.671875 C7.0212146 7.12339966 7.0212146 7.12339966 7.65258789 8.60424805 C8.07660889 9.64234619 8.50062988 10.68044434 8.9375 11.75 C9.38279053 12.80678955 9.82808105 13.8635791 10.28686523 14.95239258 C12.87005289 21.12047012 15.31061539 27.33262937 17.6484375 33.59765625 C19.52965041 38.33331072 21.60089856 42.97680176 23.6875 47.625 C24.08074463 48.50373779 24.47398926 49.38247559 24.87915039 50.2878418 C25.43977173 51.52594604 25.43977173 51.52594604 26.01171875 52.7890625 C26.51384888 53.89822021 26.51384888 53.89822021 27.02612305 55.02978516 C28.06309887 57.23393097 28.06309887 57.23393097 30 60 C32.56282742 60.72965366 32.56282742 60.72965366 35 61 C35 62.32 35 63.64 35 65 C26.42 65 17.84 65 9 65 C9 63.68 9 62.36 9 61 C11.475 60.505 11.475 60.505 14 60 C14.35283468 55.29553754 13.44054166 51.99684951 11.65625 47.734375 C11 46 11 46 11 44 C3.08 44 -4.84 44 -13 44 C-16.2192645 53.90367748 -16.2192645 53.90367748 -16 60 C-14.02 60.33 -12.04 60.66 -10 61 C-10 62.32 -10 63.64 -10 65 C-17.26 65 -24.52 65 -32 65 C-32 63.68 -32 62.36 -32 61 C-30.948125 60.71125 -29.89625 60.4225 -28.8125 60.125 C-22.94675445 57.61394355 -21.28836932 51.15381078 -19.01342773 45.58496094 C-18.08697542 43.16970201 -17.19550553 40.74396107 -16.3125 38.3125 C-11.4907914 25.33924533 -6.28124686 12.34535113 0 0 Z " fill="#183251" transform="translate(82,168)"/>
<path d="M0 0 C3.96 0 7.92 0 12 0 C12.02505615 1.81234131 12.0501123 3.62468262 12.07592773 5.49194336 C12.159684 11.46711805 12.2479555 17.44221159 12.33933926 23.41727352 C12.39460097 27.0414158 12.448026 30.6655661 12.49731445 34.28979492 C12.54491032 37.78467099 12.5972511 41.2794462 12.65294075 44.77420235 C12.68336413 46.76233823 12.70881982 48.75054809 12.73423767 50.73875427 C12.75418289 51.93992386 12.77412811 53.14109344 12.79467773 54.37866211 C12.81022202 55.44233505 12.8257663 56.506008 12.84178162 57.60191345 C12.73228552 59.95195928 12.73228552 59.95195928 14 61 C15.91808947 61.32081721 17.84471601 61.59079691 19.7734375 61.83984375 C36.8148498 64.24821498 54.11345145 67.49098706 67 80 C67 81.32 67 82.64 67 84 C65.86884766 83.61328125 65.86884766 83.61328125 64.71484375 83.21875 C45.52336751 76.92249281 28.08039721 72.64735344 7.7902832 72.98461914 C6.92363037 72.99871826 6.05697754 73.01281738 5.1640625 73.02734375 C4.38498535 73.04531006 3.6059082 73.06327637 2.80322266 73.08178711 C1 73 1 73 0 72 C-0.09436529 69.76070114 -0.11742327 67.5183825 -0.11352539 65.27709961 C-0.11367142 64.5746965 -0.11381744 63.8722934 -0.1139679 63.14860535 C-0.11326872 60.81648722 -0.10547617 58.484448 -0.09765625 56.15234375 C-0.09579208 54.53951562 -0.09436818 52.92668693 -0.09336853 51.31385803 C-0.08954323 47.06084643 -0.07971285 42.80786876 -0.06866455 38.55487061 C-0.05845069 34.2182257 -0.05387096 29.88157533 -0.04882812 25.54492188 C-0.03809059 17.02993231 -0.02101403 8.51497037 0 0 Z " fill="#163151" transform="translate(141,74)"/>
<path d="M0 0 C3.04413737 2.05302288 4.67854624 3.73114259 6.6875 6.8125 C7.09727812 9.51252731 7.29211388 11.82233491 7.296875 14.51953125 C7.31341125 15.24492599 7.32994751 15.97032074 7.34698486 16.71769714 C7.39532477 19.02021873 7.41680285 21.32208066 7.4375 23.625 C7.46567168 25.19209023 7.4956008 26.75914992 7.52734375 28.32617188 C7.60107891 32.15489355 7.65073821 35.98325206 7.6875 39.8125 C9.0075 39.8125 10.3275 39.8125 11.6875 39.8125 C11.6875 39.1525 11.6875 38.4925 11.6875 37.8125 C12.3475 37.8125 13.0075 37.8125 13.6875 37.8125 C13.36465014 40.82576538 12.65384616 41.84711538 10.5 44.0625 C7.17198113 46.1332673 5.53939981 46.38618721 1.6875 45.8125 C-0.6875 44.5625 -0.6875 44.5625 -2.3125 42.8125 C-2.3125 41.4925 -2.3125 40.1725 -2.3125 38.8125 C-2.9725 38.8125 -3.6325 38.8125 -4.3125 38.8125 C-4.6425 39.8025 -4.9725 40.7925 -5.3125 41.8125 C-10.23492993 44.97088315 -15.47313422 46.71086397 -21.3125 45.8125 C-24.06579021 44.01687595 -25.83877461 42.75995078 -27.3125 39.8125 C-27.5859375 37.859375 -27.5859375 37.859375 -27.6875 35.5625 C-27.73648438 34.81484375 -27.78546875 34.0671875 -27.8359375 33.296875 C-27.05180445 29.5751689 -25.15433876 27.21050847 -22.3125 24.8125 C-19.35602994 23.19175082 -16.30153007 22.05296148 -13.125 20.9375 C-12.30580078 20.63070312 -11.48660156 20.32390625 -10.64257812 20.0078125 C-4.68877302 17.8125 -4.68877302 17.8125 -2.3125 17.8125 C-2.56870684 16.2059324 -2.84305871 14.6022517 -3.125 13 C-3.27582031 12.10667969 -3.42664063 11.21335938 -3.58203125 10.29296875 C-4.38140956 7.57850229 -5.08022876 6.50967475 -7.3125 4.8125 C-10.27905046 3.90135 -10.27905046 3.90135 -13.3125 3.8125 C-14.3025 4.4725 -15.2925 5.1325 -16.3125 5.8125 C-16.68650786 8.13966 -17.02014733 10.47367862 -17.3125 12.8125 C-19.3125 14.8125 -19.3125 14.8125 -22.375 15 C-25.3125 14.8125 -25.3125 14.8125 -26.3125 13.8125 C-26.4375 10.625 -26.4375 10.625 -25.3125 6.8125 C-22.56269256 4.35711638 -19.54440111 2.5669606 -16.3125 0.8125 C-15.64605469 0.43351563 -14.97960937 0.05453125 -14.29296875 -0.3359375 C-9.64134451 -2.33604417 -4.64410702 -1.66486855 0 0 Z " fill="#102B4B" transform="translate(187.3125,188.1875)"/>
<path d="M0 0 C3.98677974 2.02963332 6.72681577 4.15350851 9 8 C9.43237305 11.39160156 9.43237305 11.39160156 9.51171875 15.390625 C9.52966995 16.09523865 9.54762115 16.79985229 9.56611633 17.52581787 C9.62011858 19.76715179 9.65408088 22.00827405 9.6875 24.25 C9.72068218 25.77346689 9.75517269 27.29690589 9.79101562 28.8203125 C9.87583738 32.5466716 9.94269724 36.27310463 10 40 C11.32 40.33 12.64 40.66 14 41 C14 40.34 14 39.68 14 39 C14.66 39 15.32 39 16 39 C15.62329917 41.18486483 15.12283891 42.80490291 13.9375 44.6875 C10.84884255 46.77981634 7.71211745 47.51998532 4 47 C1.72402787 45.21406972 0.61127243 43.46726091 -1 41 C-1.47050781 41.34933594 -1.94101562 41.69867188 -2.42578125 42.05859375 C-3.04839844 42.51363281 -3.67101562 42.96867187 -4.3125 43.4375 C-4.92738281 43.88996094 -5.54226563 44.34242188 -6.17578125 44.80859375 C-10.02412247 47.32196436 -13.52154471 47.30885899 -18 47 C-20.82275936 45.74544028 -22.46288541 44.71615278 -24.3125 42.25 C-25.7226622 37.6349237 -25.55456702 34.17845492 -23.5 29.8125 C-18.08659722 23.72242188 -9.606229 21.40735867 -2 19 C-1.34 19 -0.68 19 0 19 C-0.39611961 17.03740738 -0.81761694 15.07992339 -1.25 13.125 C-1.48203125 12.03445312 -1.7140625 10.94390625 -1.953125 9.8203125 C-2.73184072 6.91831971 -2.73184072 6.91831971 -4.9453125 5.6015625 C-7.64540967 4.81103975 -9.33682388 5.15899702 -12 6 C-14.68279973 8.68279973 -15.01457946 11.38679134 -16 15 C-17 16 -17 16 -20 16.125 C-23 16 -23 16 -24 15 C-24.2890625 12.6640625 -24.2890625 12.6640625 -24 10 C-17.85379611 2.35624389 -9.7167336 -1.43776058 0 0 Z " fill="#15304F" transform="translate(280,187)"/>
<path d="M0 0 C4.69178999 2.65456539 8.51628925 6.1521295 10.765625 11.11328125 C11.140625 14.98828125 11.140625 14.98828125 10.765625 18.11328125 C9.765625 19.11328125 9.765625 19.11328125 6.98999023 19.22680664 C5.78028564 19.22156982 4.57058105 19.21633301 3.32421875 19.2109375 C2.01904297 19.20771484 0.71386719 19.20449219 -0.63085938 19.20117188 C-2.0195319 19.19281526 -3.40820377 19.1843503 -4.796875 19.17578125 C-6.18945156 19.17076791 -7.58202981 19.16620472 -8.97460938 19.16210938 C-12.3945737 19.15027559 -15.81445344 19.13379005 -19.234375 19.11328125 C-18.93218602 20.70905774 -18.62528163 22.30394173 -18.31640625 23.8984375 C-18.1460083 24.78668213 -17.97561035 25.67492676 -17.80004883 26.59008789 C-16.82385621 30.9444041 -15.47088982 34.02223876 -12.109375 36.98828125 C-7.50422107 38.790298 -2.83769497 39.22469862 1.796875 37.24609375 C3.49021053 36.26309812 5.13148075 35.19181646 6.765625 34.11328125 C7.755625 33.78328125 8.745625 33.45328125 9.765625 33.11328125 C9.28721893 37.41893586 6.97372694 39.38298172 3.765625 42.11328125 C-1.65502789 45.76247895 -6.73194245 47.22733438 -13.234375 46.11328125 C-20.42859365 43.81009614 -24.34029164 39.44425544 -28.046875 32.92578125 C-30.45602501 25.19114176 -30.06900585 18.26444921 -26.35546875 11.04296875 C-20.89598996 1.64581711 -10.81575933 -4.29226813 0 0 Z " fill="#193251" transform="translate(429.234375,187.88671875)"/>
<path d="M0 0 C83.49 0 166.98 0 253 0 C248.34197459 4.65802541 239.69708536 4.22899472 233.42763937 4.25816262 C232.0705906 4.24942409 232.0705906 4.24942409 230.68612671 4.24050903 C229.69752989 4.24221788 228.70893308 4.24392673 227.69037879 4.24568737 C224.40467555 4.24896027 221.11918025 4.23801497 217.83349609 4.22705078 C215.46751917 4.22648619 213.1015419 4.22680416 210.73556519 4.22793579 C204.33137203 4.22850844 197.92725414 4.21676828 191.52307844 4.20278788 C185.50265854 4.19153564 179.48224136 4.18953958 173.46181317 4.18748413 C161.54337563 4.18311535 149.62496559 4.16982851 137.70654297 4.15087891 C126.13427874 4.1324989 114.56202199 4.11835279 102.98974609 4.10986328 C102.27549439 4.10933783 101.56124269 4.10881239 100.82534699 4.10827102 C97.24187628 4.10566079 93.65840552 4.10313341 90.07493472 4.10064721 C60.38327159 4.07994018 30.69163711 4.0445875 1 4 C0.67 2.68 0.34 1.36 0 0 Z " fill="#203651" transform="translate(62,261)"/>
<path d="M0 0 C2.625 0.3125 2.625 0.3125 4.375 2.125 C5.625 4.3125 5.625 4.3125 6.625 7.3125 C9.1 7.8075 9.1 7.8075 11.625 8.3125 C11.74875 7.549375 11.8725 6.78625 12 6 C12.625 3.3125 12.625 3.3125 14.625 0.3125 C17.75 0.125 17.75 0.125 20.625 0.3125 C21.4375 2.4375 21.4375 2.4375 21.625 5.3125 C20.82964844 6.13492188 20.03429687 6.95734375 19.21484375 7.8046875 C15.48135348 12.0634765 15.64948193 16.86620055 15.375 22.3125 C15.24651096 24.25011478 15.11634915 26.18761948 14.984375 28.125 C14.92830078 29.02476563 14.87222656 29.92453125 14.81445312 30.8515625 C14.5944111 33.70984032 14.17613891 36.49979106 13.625 39.3125 C16.265 39.3125 18.905 39.3125 21.625 39.3125 C21.625 36.6725 21.625 34.0325 21.625 31.3125 C23.275 30.6525 24.925 29.9925 26.625 29.3125 C26.67883848 31.77112401 26.71859038 34.2285755 26.75 36.6875 C26.76675781 37.38617188 26.78351563 38.08484375 26.80078125 38.8046875 C26.81844267 40.64147486 26.72803261 42.47851963 26.625 44.3125 C23.75633116 47.18116884 21.72844387 46.57103358 17.71875 46.578125 C16.69799377 46.58099518 16.69799377 46.58099518 15.65661621 46.58392334 C14.21752554 46.58528463 12.77842256 46.58159205 11.33935547 46.57324219 C9.13350913 46.56254128 6.92847719 46.57313872 4.72265625 46.5859375 C3.32551903 46.58461589 1.92838232 46.58205348 0.53125 46.578125 C-0.74427734 46.57586914 -2.01980469 46.57361328 -3.33398438 46.57128906 C-6.375 46.3125 -6.375 46.3125 -8.375 44.3125 C-8.5703125 41.7109375 -8.5703125 41.7109375 -8.5 38.6875 C-8.48195312 37.68460938 -8.46390625 36.68171875 -8.4453125 35.6484375 C-8.42210937 34.87757812 -8.39890625 34.10671875 -8.375 33.3125 C-6.1272025 35.36483685 -5.3727758 36.31917261 -4.375 39.3125 C-1.735 39.3125 0.905 39.3125 3.625 39.3125 C3.56441406 38.71824219 3.50382812 38.12398437 3.44140625 37.51171875 C3.16516379 34.77904334 2.89504512 32.04579451 2.625 29.3125 C2.52960938 28.37792969 2.43421875 27.44335938 2.3359375 26.48046875 C1.80519535 21.05931677 1.5222306 15.75927829 1.625 10.3125 C0.985625 10.126875 0.34625 9.94125 -0.3125 9.75 C-2.375 8.3125 -2.375 8.3125 -3.1875 4.75 C-3.2803125 3.0484375 -3.2803125 3.0484375 -3.375 1.3125 C-2.375 0.3125 -2.375 0.3125 0 0 Z " fill="#102B4B" transform="translate(261.375,78.6875)"/>
<path d="M0 0 C6.6 0 13.2 0 20 0 C19.67 1.32 19.34 2.64 19 4 C17.68 4 16.36 4 15 4 C17.77714027 13.97406975 20.78327381 23.52819155 25 33 C26.49255405 29.48469569 27.96657976 25.96190524 29.4375 22.4375 C30.06881836 20.9515332 30.06881836 20.9515332 30.71289062 19.43554688 C32.86862958 14.24452748 34.56655303 9.61904896 35 4 C33.02 3.67 31.04 3.34 29 3 C29.33 2.01 29.66 1.02 30 0 C34.95 0 39.9 0 45 0 C45 1.32 45 2.64 45 4 C44.38125 4.08636719 43.7625 4.17273438 43.125 4.26171875 C40.89799957 4.79953236 40.89799957 4.79953236 39.875 6.64453125 C39.58625 7.35996094 39.2975 8.07539063 39 8.8125 C38.66613281 9.63105469 38.33226562 10.44960937 37.98828125 11.29296875 C36.98137493 14.05101649 36.07722527 16.82709799 35.1875 19.625 C33.00436234 26.34430697 30.04232736 32.6027948 26.97509766 38.94677734 C25.94576243 41.1142058 24.95979966 43.29783348 23.98046875 45.48828125 C23.63983398 46.24020752 23.29919922 46.99213379 22.94824219 47.7668457 C22.29588058 49.20818668 21.65139899 50.6531325 21.01660156 52.10229492 C18.21766983 58.21113301 14.63581109 63.24279261 9 67 C6.4375 67.25 6.4375 67.25 4 67 C2 65 2 65 1.8125 61.9375 C2 59 2 59 3 58 C4.41325154 57.73136541 5.83076353 57.48497293 7.25 57.25 C12.68126357 56.09294226 15.13242053 53.54669928 18.375 49.125 C20.54022776 41.76322562 15.57226537 33.92526237 12.625 27.4375 C12.13 26.32697266 11.635 25.21644531 11.125 24.07226562 C8.37253686 17.91009041 8.37253686 17.91009041 5.33349609 11.88696289 C4 9 4 9 4 5 C2.35 4.67 0.7 4.34 -1 4 C-0.67 2.68 -0.34 1.36 0 0 Z " fill="#163050" transform="translate(317,188)"/>
<path d="M0 0 C3.02118246 2.48803262 3.98720072 4.54219753 4.43139648 8.43554688 C4.50118546 11.70746483 4.54585942 14.977352 4.5625 18.25 C4.59537109 19.39082031 4.62824219 20.53164062 4.66210938 21.70703125 C4.71582786 30.0187465 4.71582786 30.0187465 1.90625 33.49609375 C-2.50087824 35.48301533 -6.14035177 35.60117271 -10.875 34.75 C-16.53722021 31.49946618 -19.07859736 26.97143966 -20.875 20.75 C-21.79460034 14.66410561 -20.77137939 9.17457496 -17.875 3.75 C-13.22790591 -1.91364592 -6.60855088 -2.87328299 0 0 Z " fill="#EEEBE9" transform="translate(232.875,192.25)"/>
<path d="M0 0 C10.56 0 21.12 0 32 0 C31.18640241 4.06798793 30.82040851 5.71156055 28.77734375 8.96875 C28.32488281 9.69876221 27.87242187 10.42877441 27.40625 11.1809082 C26.9215625 11.9462085 26.436875 12.71150879 25.9375 13.5 C25.44378906 14.29301514 24.95007813 15.08603027 24.44140625 15.90307617 C23.44027598 17.51062295 22.4362276 19.11635627 21.42919922 20.72021484 C19.43249926 23.90524803 17.4660489 27.10849833 15.5 30.3125 C14.58734375 31.79169922 14.58734375 31.79169922 13.65625 33.30078125 C12.08745922 35.85746622 10.53845224 38.42496865 9 41 C18.4942045 40.75511094 18.4942045 40.75511094 27 37 C28.37013339 35.36345179 29.7120272 33.70196405 31 32 C31.66 32 32.32 32 33 32 C32.67 36.29 32.34 40.58 32 45 C20.45 45 8.9 45 -3 45 C-3.33 44.34 -3.66 43.68 -4 43 C-3.21484375 41.27929688 -3.21484375 41.27929688 -1.9375 39.21875 C-1.4736792 38.46408447 -1.0098584 37.70941895 -0.53198242 36.93188477 C-0.02642822 36.12936279 0.47912598 35.32684082 1 34.5 C1.50748779 33.68136475 2.01497559 32.86272949 2.5378418 32.01928711 C5.67388339 26.99653751 8.96166268 22.12416615 12.4296875 17.32421875 C15.29701957 13.08028198 17.64285609 8.54160329 20 4 C13.22157638 4.24122504 8.22249107 4.44705907 3 9 C2.01 10.485 2.01 10.485 1 12 C0.34 12 -0.32 12 -1 12 C-1.08384078 7.72412002 -0.84728203 4.23641013 0 0 Z " fill="#152F4F" transform="translate(365,188)"/>
<path d="M0 0 C5.04411974 3.09214574 5.04411974 3.09214574 6.47265625 5.94921875 C6.59765625 9.51171875 6.59765625 9.51171875 6.47265625 12.94921875 C5.47265625 13.94921875 5.47265625 13.94921875 2.41015625 14.01171875 C1.44078125 13.99109375 0.47140625 13.97046875 -0.52734375 13.94921875 C-0.79289062 13.31113281 -1.0584375 12.67304688 -1.33203125 12.015625 C-1.68523437 11.18933594 -2.0384375 10.36304688 -2.40234375 9.51171875 C-2.75039062 8.68800781 -3.0984375 7.86429688 -3.45703125 7.015625 C-4.35183745 4.7917516 -4.35183745 4.7917516 -6.52734375 3.94921875 C-10.60644181 3.56439818 -12.81824248 3.50800018 -16.33984375 5.69921875 C-20.59012151 10.07093302 -20.86713766 13.8741461 -20.83984375 19.82421875 C-20.85595703 20.51902344 -20.87207031 21.21382812 -20.88867188 21.9296875 C-20.89428146 27.88706354 -19.3317247 31.80651637 -15.52734375 36.32421875 C-10.93599914 38.81119708 -6.6241822 38.9642052 -1.52734375 37.94921875 C0.67201729 36.5398809 2.28402716 35.09468232 4.03515625 33.1640625 C4.50953125 32.76316406 4.98390625 32.36226562 5.47265625 31.94921875 C6.46265625 32.27921875 7.45265625 32.60921875 8.47265625 32.94921875 C5.92721397 38.69819328 1.4563395 41.8672097 -3.96484375 44.82421875 C-9.58978045 46.60051455 -13.59944013 46.57006907 -19.21484375 44.76171875 C-25.38239266 41.38702218 -29.4951952 36.68341313 -31.52734375 29.94921875 C-32.53013826 22.60467744 -32.23984539 16.27048196 -28.15625 9.953125 C-20.98576883 1.13188557 -11.52000746 -4.7896167 0 0 Z " fill="#152F4F" transform="translate(147.52734375,188.05078125)"/>
<path d="M0 0 C0.33 20.46 0.66 40.92 1 62 C2.32 62.66 3.64 63.32 5 64 C5 65.32 5 66.64 5 68 C-1.6 68 -8.2 68 -15 68 C-15 66.68 -15 65.36 -15 64 C-13.35 63.34 -11.7 62.68 -10 62 C-9.92406017 54.5069832 -9.87144668 47.01406529 -9.83520508 39.52075195 C-9.82009995 36.97058402 -9.79961467 34.42044214 -9.77368164 31.87036133 C-9.73737496 28.20908181 -9.72029085 24.54814515 -9.70703125 20.88671875 C-9.69154739 19.7428923 -9.67606354 18.59906586 -9.66011047 17.420578 C-9.65988388 16.35970474 -9.65965729 15.29883148 -9.65942383 14.20581055 C-9.64943108 12.80349434 -9.64943108 12.80349434 -9.63923645 11.37284851 C-10.06815491 8.551725 -10.77205364 7.7186821 -13 6 C-13.66 5.67 -14.32 5.34 -15 5 C-15 4.34 -15 3.68 -15 3 C-13.0636296 2.49564306 -11.12585854 1.99666126 -9.1875 1.5 C-8.10855469 1.2215625 -7.02960938 0.943125 -5.91796875 0.65625 C-3 0 -3 0 0 0 Z " fill="#112D4C" transform="translate(312,165)"/>
<path d="M0 0 C0.33 0.66 0.66 1.32 1 2 C1.99 2 2.98 2 4 2 C4.02685095 4.47923801 4.04676547 6.9581884 4.0625 9.4375 C4.07087891 10.14455078 4.07925781 10.85160156 4.08789062 11.58007812 C4.09653588 13.38693559 4.05220011 15.19387603 4 17 C3.67 17.33 3.34 17.66 3 18 C3.66 18.33 4.32 18.66 5 19 C4.67 20.32 4.34 21.64 4 23 C3.67 22.34 3.34 21.68 3 21 C2.52949219 21.34933594 2.05898438 21.69867188 1.57421875 22.05859375 C0.95160156 22.51363281 0.32898438 22.96867187 -0.3125 23.4375 C-0.92738281 23.88996094 -1.54226563 24.34242188 -2.17578125 24.80859375 C-6.02412247 27.32196436 -9.52154471 27.30885899 -14 27 C-16.82275936 25.74544028 -18.46288541 24.71615278 -20.3125 22.25 C-21.7226622 17.6349237 -21.55456702 14.17845492 -19.5 9.8125 C-14.40668399 4.08251949 -7.16226812 2.18847081 0 0 Z " fill="#142E4E" transform="translate(276,207)"/>
<path d="M0 0 C0 0.66 0 1.32 0 2 C1.65 2 3.3 2 5 2 C5.08107583 3.93681161 5.13922475 5.8745934 5.1875 7.8125 C5.23970703 9.43091797 5.23970703 9.43091797 5.29296875 11.08203125 C4.96182913 14.38018184 4.44775167 14.94684809 2 17 C1.67 17.99 1.34 18.98 1 20 C1.66 20.33 2.32 20.66 3 21 C-7.81298992 27.09182531 -7.81298992 27.09182531 -14 26 C-16.75329021 24.20437595 -18.52627461 22.94745078 -20 20 C-20.64932651 15.36195352 -20.48899098 11.94176041 -18.3125 7.75 C-14.18916304 3.45885281 -5.92936561 0 0 0 Z " fill="#173150" transform="translate(180,208)"/>
<path d="M0 0 C9.57 0 19.14 0 29 0 C29 2.64 29 5.28 29 8 C28 9 28 9 25.31616211 9.11352539 C24.14835205 9.10828857 22.98054199 9.10305176 21.77734375 9.09765625 C20.51728516 9.09443359 19.25722656 9.09121094 17.95898438 9.08789062 C16.61848891 9.07953403 15.27799412 9.07106907 13.9375 9.0625 C12.59310058 9.0574866 11.2486994 9.05292342 9.90429688 9.04882812 C6.60282059 9.03699488 3.30143197 9.02050971 0 9 C0 6.03 0 3.06 0 0 Z " fill="#112C4E" transform="translate(256,129)"/>
<path d="M0 0 C4.71913184 0.07478814 7.21097191 1.12023646 10.8125 4.3125 C14.12823659 7.85630313 15.71203419 10.27435325 16.1875 15.1875 C15.8125 18.3125 15.8125 18.3125 14.8125 19.3125 C12.59394736 19.40033542 10.37261504 19.41944609 8.15234375 19.41015625 C7.15564415 19.40803383 7.15564415 19.40803383 6.1388092 19.40586853 C4.00916101 19.40025518 1.87961661 19.38770054 -0.25 19.375 C-1.69075369 19.36998671 -3.13150903 19.36542351 -4.57226562 19.36132812 C-8.11071102 19.35028145 -11.64909539 19.33300792 -15.1875 19.3125 C-14.6925 17.8275 -14.6925 17.8275 -14.1875 16.3125 C-7.9175 15.9825 -1.6475 15.6525 4.8125 15.3125 C4.47750695 8.89435336 4.47750695 8.89435336 2.5078125 6.60546875 C-0.03967999 4.81208473 -2.59514812 3.04073459 -5.1875 1.3125 C-3.63719882 -0.23780118 -2.15073999 0.06844901 0 0 Z " fill="#152F4F" transform="translate(424.1875,187.6875)"/>
<path d="M0 0 C3.125 -0.1875 3.125 -0.1875 6 0 C6.8125 2.125 6.8125 2.125 7 5 C6.2059375 5.8146875 5.411875 6.629375 4.59375 7.46875 C0.79051433 11.80060269 0.98387337 16.84031653 0.6875 22.375 C0.61466797 23.39722656 0.54183594 24.41945313 0.46679688 25.47265625 C0.2909685 27.9811411 0.13602593 30.48909508 0 33 C-0.66 31.68 -1.32 30.36 -2 29 C-3.98 29.99 -3.98 29.99 -6 31 C-7.10789535 26.94691667 -7.33731267 22.92888626 -7.5625 18.75 C-7.60568359 18.00492188 -7.64886719 17.25984375 -7.69335938 16.4921875 C-7.79896725 14.661651 -7.89994201 12.83084824 -8 11 C-6.68 10.67 -5.36 10.34 -4 10 C-5.65 9.67 -7.3 9.34 -9 9 C-8.67 8.34 -8.34 7.68 -8 7 C-6.35 7.33 -4.7 7.66 -3 8 C-2.814375 6.8553125 -2.814375 6.8553125 -2.625 5.6875 C-2 3 -2 3 0 0 Z " fill="#213856" transform="translate(276,79)"/>
<path d="M0 0 C2.63406245 1.31703122 2.82202149 2.4918763 3.9453125 5.18359375 C4.29980469 6.02857422 4.65429688 6.87355469 5.01953125 7.74414062 C5.38433594 8.63294922 5.74914062 9.52175781 6.125 10.4375 C6.68380859 11.76491211 6.68380859 11.76491211 7.25390625 13.11914062 C10 19.72284226 10 19.72284226 10 22 C3.73 22 -2.54 22 -9 22 C-7.6907422 18.5195812 -6.37776588 15.04064755 -5.0625 11.5625 C-4.68931641 10.56927734 -4.31613281 9.57605469 -3.93164062 8.55273438 C-3.57392578 7.60849609 -3.21621094 6.66425781 -2.84765625 5.69140625 C-2.51773682 4.81685791 -2.18781738 3.94230957 -1.84790039 3.04125977 C-1 1 -1 1 0 0 Z " fill="#EDEAE9" transform="translate(80,186)"/>
<path d="M0 0 C1.05335853 10.33294562 1.05335853 10.33294562 -1.34765625 14.1328125 C-4.2544442 16.77767011 -6.35326641 17.88806534 -10.25 18.5625 C-13 18 -13 18 -14.875 17 C-16.69642641 13.7619086 -16.74065077 10.55224739 -16 7 C-12.43081763 2.74000814 -5.61896952 0 0 0 Z " fill="#E5E3E2" transform="translate(280,210)"/>
<path d="M0 0 C1.05335853 10.33294562 1.05335853 10.33294562 -1.34765625 14.1328125 C-4.2544442 16.77767011 -6.35326641 17.88806534 -10.25 18.5625 C-13.32400244 17.93372677 -14.14633675 17.46421703 -16 15 C-16.14453125 12.80859375 -16.14453125 12.80859375 -15.8125 10.4375 C-15.71582031 9.65246094 -15.61914062 8.86742187 -15.51953125 8.05859375 C-15 6 -15 6 -13 4 C-11.37837888 3.23786589 -9.72814968 2.53538974 -8.0625 1.875 C-6.74958984 1.34519531 -6.74958984 1.34519531 -5.41015625 0.8046875 C-3 0 -3 0 0 0 Z " fill="#E7E5E4" transform="translate(185,210)"/>
<path d="M0 0 C2.54694702 1.9896282 4.48925838 4.13899846 6 7 C6 8.65 6 10.3 6 12 C-0.6 12 -7.2 12 -14 12 C-14 10.35 -14 8.7 -14 7 C-13.34 7 -12.68 7 -12 7 C-11.9175 6.401875 -11.835 5.80375 -11.75 5.1875 C-9.85651826 -0.33515507 -5.27162339 -0.90890058 0 0 Z " fill="#EDEAE9" transform="translate(424,191)"/>
<path d="M0 0 C4.95 0 9.9 0 15 0 C15 1.32 15 2.64 15 4 C14.38125 4.08636719 13.7625 4.17273438 13.125 4.26171875 C10.89799957 4.79953236 10.89799957 4.79953236 9.875 6.64453125 C9.58625 7.35996094 9.2975 8.07539063 9 8.8125 C8.505 10.02679688 8.505 10.02679688 8 11.265625 C6.56783201 15.18170935 5.29590892 19.14541719 4.015625 23.11328125 C2.66456289 26.95341549 0.92820188 30.41905365 -1 34 C-1.99 33.67 -2.98 33.34 -4 33 C-2.29573383 27.70780504 -0.43504871 22.54004966 1.625 17.375 C3.39406728 12.84342526 4.66186662 8.84657842 5 4 C2.03 3.505 2.03 3.505 -1 3 C-0.67 2.01 -0.34 1.02 0 0 Z " fill="#1E3452" transform="translate(347,188)"/>
<path d="M0 0 C1.18613892 0.00785522 1.18613892 0.00785522 2.39624023 0.01586914 C3.67724609 0.02070313 3.67724609 0.02070313 4.98413086 0.02563477 C5.88196289 0.03401367 6.77979492 0.04239258 7.70483398 0.05102539 C8.6065332 0.05553711 9.50823242 0.06004883 10.43725586 0.06469727 C12.67234712 0.07652315 14.90730835 0.09300319 17.14233398 0.11352539 C17.47233398 1.43352539 17.80233398 2.75352539 18.14233398 4.11352539 C14.80061431 7.52634548 12.38365672 9.89574947 7.57983398 10.73852539 C3.48445739 9.99391146 1.26303251 8.86271219 -1.85766602 6.11352539 C-2.79516602 3.42602539 -2.79516602 3.42602539 -2.85766602 1.11352539 C-1.85766602 0.11352539 -1.85766602 0.11352539 0 0 Z " fill="#2A415D" transform="translate(262.857666015625,139.886474609375)"/>
<path d="M0 0 C0.33 0.66 0.66 1.32 1 2 C1.66 2.33 2.32 2.66 3 3 C-4.5755068 18.51942731 -4.5755068 18.51942731 -11 22 C-13.8125 22.5 -13.8125 22.5 -16 22 C-18 20 -18 20 -18.1875 16.9375 C-18 14 -18 14 -17 13 C-15.58674846 12.73136541 -14.16923647 12.48497293 -12.75 12.25 C-8.16282616 11.25975295 -5.92743835 9.78844963 -3 6 C-1.20679176 2.83354526 -1.20679176 2.83354526 0 0 Z " fill="#1B3452" transform="translate(337,233)"/>
<path d="M0 0 C0.66 0 1.32 0 2 0 C1.67 4.29 1.34 8.58 1 13 C-10.55 13 -22.1 13 -34 13 C-34 12.67 -34 12.34 -34 12 C-21.625 11.505 -21.625 11.505 -9 11 C-9.33 10.01 -9.66 9.02 -10 8 C-9.0925 7.608125 -8.185 7.21625 -7.25 6.8125 C-3.84680199 4.91456265 -2.31811597 3.06322467 0 0 Z " fill="#314762" transform="translate(396,220)"/>
<path d="M0 0 C0.79921875 0.01804688 1.5984375 0.03609375 2.421875 0.0546875 C3.02515625 0.07789063 3.6284375 0.10109375 4.25 0.125 C4.25 0.455 4.25 0.785 4.25 1.125 C0.95 1.455 -2.35 1.785 -5.75 2.125 C-5.75 3.115 -5.75 4.105 -5.75 5.125 C-6.74 5.785 -7.73 6.445 -8.75 7.125 C-9.12400786 9.45216 -9.45764733 11.78617862 -9.75 14.125 C-11.75 16.125 -11.75 16.125 -14.8125 16.3125 C-17.75 16.125 -17.75 16.125 -18.75 15.125 C-18.875 11.9375 -18.875 11.9375 -17.75 8.125 C-15.00019256 5.66961638 -11.98190111 3.8794606 -8.75 2.125 C-7.76193359 1.55072266 -7.76193359 1.55072266 -6.75390625 0.96484375 C-4.36299917 -0.03719333 -2.58105419 -0.07591336 0 0 Z " fill="#1D3552" transform="translate(179.75,186.875)"/>
<path d="M0 0 C0.99 0.33 1.98 0.66 3 1 C2.4253379 5.78642607 1.01754357 9.53788787 -1.0625 13.875 C-1.61035156 15.02742187 -2.15820312 16.17984375 -2.72265625 17.3671875 C-3.14417969 18.23601562 -3.56570313 19.10484375 -4 20 C-4.99 19.67 -5.98 19.34 -7 19 C-4.94235079 12.54646385 -2.57616518 6.2638737 0 0 Z " fill="#283C56" transform="translate(350,202)"/>
<path d="M0 0 C5.28 0 10.56 0 16 0 C16 0.33 16 0.66 16 1 C19.96 1.33 23.92 1.66 28 2 C28 2.33 28 2.66 28 3 C18.43 3 8.86 3 -1 3 C-0.67 2.01 -0.34 1.02 0 0 Z " fill="#09203D" transform="translate(410,204)"/>
<path d="M0 0 C1.32 0 2.64 0 4 0 C4.10655578 6.44070471 3.96205088 12.62641289 3 19 C0.64891442 15.29178372 0.56844942 11.51394762 0.375 7.25 C0.33632813 6.55261719 0.29765625 5.85523437 0.2578125 5.13671875 C0.16401376 3.42489182 0.08093826 1.71248318 0 0 Z " fill="#CED0D3" transform="translate(268,91)"/>
<path d="M0 0 C0 0.99 0 1.98 0 3 C-8.25 3 -16.5 3 -25 3 C-25 2.67 -25 2.34 -25 2 C-21.95872183 1.66274935 -18.91705809 1.33007668 -15.875 1 C-15.0190625 0.90460938 -14.163125 0.80921875 -13.28125 0.7109375 C-8.82977526 0.23154791 -4.48558075 -0.11765458 0 0 Z " fill="#082345" transform="translate(388,229)"/>
<path d="M0 0 C0 0.66 0 1.32 0 2 C0.66 2.33 1.32 2.66 2 3 C-1.96 4.65 -5.92 6.3 -10 8 C-10.33 6.35 -10.66 4.7 -11 3 C-9.54293274 2.49632243 -8.08429904 1.99717444 -6.625 1.5 C-5.81289062 1.2215625 -5.00078125 0.943125 -4.1640625 0.65625 C-2 0 -2 0 0 0 Z " fill="#2B405A" transform="translate(180,208)"/>
<path d="M0 0 C1.67299959 0.65061095 3.33859237 1.32033324 5 2 C5.99 2.3403125 5.99 2.3403125 7 2.6875 C10.16338191 4.76346938 11.95488094 7.86526832 14 11 C10.30123909 9.62712658 7.0485524 7.93644547 3.6875 5.875 C2.80449219 5.33617187 1.92148438 4.79734375 1.01171875 4.2421875 C0.34785156 3.83226562 -0.31601563 3.42234375 -1 3 C-0.67 2.01 -0.34 1.02 0 0 Z " fill="#DEDEDE" transform="translate(195,143)"/>
<path d="M0 0 C1.09570312 0.00902344 2.19140625 0.01804688 3.3203125 0.02734375 C4.16335937 0.03894531 5.00640625 0.05054688 5.875 0.0625 C2.28125 4.03125 2.28125 4.03125 -1.375 4.3125 C-2.2825 4.23 -3.19 4.1475 -4.125 4.0625 C-4.125 3.4025 -4.125 2.7425 -4.125 2.0625 C-5.445 1.7325 -6.765 1.4025 -8.125 1.0625 C-5.36047967 -0.31976016 -3.0788637 -0.03275387 0 0 Z " fill="#394960" transform="translate(139.125,186.9375)"/>
<path d="M0 0 C0.66 0.33 1.32 0.66 2 1 C1.01 2.485 1.01 2.485 0 4 C5.61 4 11.22 4 17 4 C17 4.33 17 4.66 17 5 C10.4 5 3.8 5 -3 5 C-3 3.68 -3 2.36 -3 1 C-2.01 0.67 -1.02 0.34 0 0 Z " fill="#576679" transform="translate(300,228)"/>
<path d="M0 0 C0.99 0.33 1.98 0.66 3 1 C1.50902342 4.7952131 -0.75700849 6.61042731 -4 9 C-4 4.91591468 -2.8670615 2.8670615 0 0 Z " fill="#2C4059" transform="translate(153,220)"/>
<path d="M0 0 C0.66 0.33 1.32 0.66 2 1 C-0.89066059 10.59453303 -0.89066059 10.59453303 -4 14 C-4.66 13.67 -5.32 13.34 -6 13 C-5.67 11.68 -5.34 10.36 -5 9 C-4.01 9 -3.02 9 -2 9 C-2 7.68 -2 6.36 -2 5 C-1.34 5 -0.68 5 0 5 C0 3.35 0 1.7 0 0 Z " fill="#36475F" transform="translate(349,208)"/>
<path d="M0 0 C0.33 0.66 0.66 1.32 1 2 C1.99 2.33 2.98 2.66 4 3 C-0.95 4.485 -0.95 4.485 -6 6 C-6 4.68 -6 3.36 -6 2 C-4.02 1.34 -2.04 0.68 0 0 Z " fill="#2B3F58" transform="translate(276,207)"/>
<path d="M0 0 C0.91007812 0.00902344 1.82015625 0.01804688 2.7578125 0.02734375 C3.45648438 0.03894531 4.15515625 0.05054688 4.875 0.0625 C4.875 0.3925 4.875 0.7225 4.875 1.0625 C2.565 1.3925 0.255 1.7225 -2.125 2.0625 C-1.465 2.7225 -0.805 3.3825 -0.125 4.0625 C-2.435 4.3925 -4.745 4.7225 -7.125 5.0625 C-7.125 3.7425 -7.125 2.4225 -7.125 1.0625 C-4.60024538 -0.19987731 -2.81299534 -0.03606404 0 0 Z " fill="#404E64" transform="translate(422.125,186.9375)"/>
<path d="M0 0 C1.50433594 0.01353516 1.50433594 0.01353516 3.0390625 0.02734375 C3.80992187 0.03894531 4.58078125 0.05054688 5.375 0.0625 C5.375 0.3925 5.375 0.7225 5.375 1.0625 C3.395 1.3925 1.415 1.7225 -0.625 2.0625 C0.365 2.7225 1.355 3.3825 2.375 4.0625 C-4.25 3.3125 -4.25 3.3125 -7.625 1.0625 C-4.98041621 -0.25979189 -2.94738699 -0.03427194 0 0 Z " fill="#46556A" transform="translate(225.625,186.9375)"/>
<path d="M0 0 C0.66 0 1.32 0 2 0 C2 2.31 2 4.62 2 7 C1.34 7 0.68 7 0 7 C-0.33 6.34 -0.66 5.68 -1 5 C-1.99 5 -2.98 5 -4 5 C-2.71937515 3.2925002 -1.38232443 1.62626404 0 0 Z " fill="#30435C" transform="translate(396,220)"/>
<path d="M0 0 C-1.04874998 2.62187494 -1.64931313 3.79371361 -4.125 5.25 C-4.74375 5.4975 -5.3625 5.745 -6 6 C-6.33 4.35 -6.66 2.7 -7 1 C-4 0 -4 0 0 0 Z " fill="#1E3653" transform="translate(271,210)"/>
<path d="M0 0 C0.66 0.33 1.32 0.66 2 1 C1.67 1.33 1.34 1.66 1 2 C1.66 2.33 2.32 2.66 3 3 C2.67 4.32 2.34 5.64 2 7 C1.67 6.34 1.34 5.68 1 5 C0.01 5 -0.98 5 -2 5 C-2.99 4.67 -3.98 4.34 -5 4 C-3.35 2.68 -1.7 1.36 0 0 Z " fill="#32445D" transform="translate(278,223)"/>
<path d="M0 0 C0.66 0.33 1.32 0.66 2 1 C1.67 3.31 1.34 5.62 1 8 C0.01 8.33 -0.98 8.66 -2 9 C-1.51421457 5.87709365 -1.0013988 3.00419641 0 0 Z " fill="#112C4A" transform="translate(353,194)"/>
<path d="M0 0 C0 3 0 3 -1.875 4.9375 C-2.57625 5.618125 -3.2775 6.29875 -4 7 C-5.23512079 9.13309192 -5.23512079 9.13309192 -6 11 C-5.63076923 4.6 -5.63076923 4.6 -2.4375 1.5625 C-1.633125 1.046875 -0.82875 0.53125 0 0 Z " fill="#263A55" transform="translate(167,191)"/>
<path d="M0 0 C-0.66 0 -1.32 0 -2 0 C-2 1.65 -2 3.3 -2 5 C-4.475 4.01 -4.475 4.01 -7 3 C-6.67 2.01 -6.34 1.02 -6 0 C-3 -1 -3 -1 0 0 Z " fill="#505E72" transform="translate(238,168)"/>
<path d="M0 0 C0.33 0.66 0.66 1.32 1 2 C1.66 2.33 2.32 2.66 3 3 C2.01 4.32 1.02 5.64 0 7 C-0.66 6.67 -1.32 6.34 -2 6 C-1.34 4.02 -0.68 2.04 0 0 Z " fill="#3B4C63" transform="translate(337,233)"/>
<path d="M0 0 C0.66 0 1.32 0 2 0 C3.2890625 1.53125 3.2890625 1.53125 4.625 3.5 C5.07101563 4.1496875 5.51703125 4.799375 5.9765625 5.46875 C6.31429687 5.9740625 6.65203125 6.479375 7 7 C3.62496331 5.8141763 1.35277269 4.72426311 -1 2 C-0.67 1.34 -0.34 0.68 0 0 Z " fill="#9599A2" transform="translate(202,147)"/>
</svg>
